<svg xmlns="http://www.w3.org/2000/svg" viewBox="0 0 50 44.12"><defs><style>.cls-1{fill:#0a2635;}</style></defs><g id="Layer_2" data-name="Layer 2"><g id="Layer_1-2" data-name="Layer 1"><path class="cls-1" d="M31.89,8.88,27.65,1.53a3.06,3.06,0,0,0-5.3,0L18.1,8.89a18.87,18.87,0,0,1,13.79,0Z"/><path class="cls-1" d="M6.36,29.23.42,39.53a3.06,3.06,0,0,0,2.65,4.59h8.81a3,3,0,0,0,1.53-.42,2.94,2.94,0,0,0,1.12-1.12l.22-.32A18.83,18.83,0,0,1,6.36,29.23Z"/><path class="cls-1" d="M37.62,38.76a17.4,17.4,0,0,0,4.9-11.47c0-.24,0-.47,0-.71A17.54,17.54,0,0,0,33.14,11a16.38,16.38,0,0,0-1.76-.8,16.8,16.8,0,0,0-2.08-.67A17.41,17.41,0,0,0,25,9c-.37,0-.74,0-1.11,0a17,17,0,0,0-3.13.48c-.42.1-.84.22-1.25.36a17.08,17.08,0,0,0-2.45,1l-.2.11a17.51,17.51,0,0,0-9.4,15.53c0,.24,0,.47,0,.71h0A17,17,0,0,0,7.79,30c.12.57.26,1.13.42,1.69a17.5,17.5,0,0,0,1.23,3,16.84,16.84,0,0,0,1.9,2.9c.32.4.66.79,1,1.15a18,18,0,0,0,2.42,2.1c.3.22.61.43.92.62h0a17.54,17.54,0,0,0,18.62,0,18.61,18.61,0,0,0,2.25-1.69C36.93,39.44,37.28,39.11,37.62,38.76ZM17.43,34.39a.28.28,0,0,1,.22-.09.26.26,0,0,1,.19.07.27.27,0,0,1,.12.24v2a.31.31,0,1,1-.62,0v-2a.26.26,0,0,1,0-.15A.18.18,0,0,1,17.43,34.39Zm1.06-.52a.18.18,0,0,1,.07,0,.33.33,0,0,1,.15,0,.31.31,0,0,1,.31.32v3.08a.31.31,0,1,1-.62,0V34.1a.31.31,0,0,1,.06-.19ZM20,33.13l0,0h0a.31.31,0,0,1,.09.22v4.49a.38.38,0,0,1-.07.21.41.41,0,0,1-.21.1h0a.34.34,0,0,1-.17,0,.3.3,0,0,1-.14-.26V33.39a.31.31,0,0,1,.31-.31.37.37,0,0,1,.18.05Zm1.08.72h0a.31.31,0,0,1,.09.18s0,0,0,.05v3.07a.33.33,0,0,1,0,.15h0a.34.34,0,0,1-.28.16.31.31,0,0,1-.31-.31V34.1a.31.31,0,0,1,.5-.25Zm1.16.68a.19.19,0,0,1,0,.08v2a.3.3,0,0,1-.05.16.33.33,0,0,1-.27.15.3.3,0,0,1-.31-.31v-2a.31.31,0,0,1,.31-.31.28.28,0,0,1,.22.09h0A.37.37,0,0,1,22.19,34.53Zm.76.24a.32.32,0,0,1,.22.09.33.33,0,0,1,.1.23v1.09a.32.32,0,0,1-.32.32.42.42,0,0,1-.15,0,.33.33,0,0,1-.16-.28V35.09a.33.33,0,0,1,.16-.28A.42.42,0,0,1,23,34.77Zm1.39-.38a.32.32,0,0,1,.1.22v2a.32.32,0,0,1-.32.31H24a.31.31,0,0,1-.22-.3v-2a.31.31,0,0,1,.31-.31.24.24,0,0,1,.15,0A.18.18,0,0,1,24.34,34.39Zm.72.48h0l0,0a.31.31,0,0,1,.5.25v1.09a.31.31,0,0,1-.31.32.24.24,0,0,1-.12,0,.3.3,0,0,1-.19-.29V35.09A.19.19,0,0,1,25,35,.37.37,0,0,1,25.06,34.87Zm1.07-.48a.31.31,0,0,1,.4,0,.3.3,0,0,1,.13.25v2a.31.31,0,1,1-.62,0v-2a.32.32,0,0,1,0-.16Zm1.06-.52,0,0a.28.28,0,0,1,.18-.06.31.31,0,0,1,.22.09.32.32,0,0,1,.09.23v3.07a.3.3,0,0,1-.31.32.31.31,0,0,1-.31-.31V34.1a.33.33,0,0,1,0-.15Zm1.46-.73,0,0h0l0,0a.37.37,0,0,1,.07.2v4.49a.32.32,0,0,1-.29.31h0a.3.3,0,0,1-.31-.31V33.39a.31.31,0,0,1,.31-.31.34.34,0,0,1,.17.05Zm.78.66h0l.09,0a.32.32,0,0,1,.22.09h0l0,0h0a.28.28,0,0,1,.06.18v3.07a.32.32,0,0,1-.32.32l-.12,0a.31.31,0,0,1-.19-.29V34.1a.31.31,0,0,1,.19-.29Zm1.47.73s0,0,0,.08v2a.32.32,0,0,1-.32.31.28.28,0,0,1-.15,0h0a.3.3,0,0,1-.14-.26v-2a.31.31,0,0,1,.31-.31.32.32,0,0,1,.23.09h0A.64.64,0,0,1,30.9,34.53Zm.75.24a.32.32,0,0,1,.19.07.05.05,0,0,1,0,0h0l0,0h0a.35.35,0,0,1,0,.18v1.09a.32.32,0,0,1-.32.32.42.42,0,0,1-.15,0,.33.33,0,0,1-.16-.28V35.09a.33.33,0,0,1,.16-.28A.42.42,0,0,1,31.65,34.77ZM16.59,36.5a.21.21,0,0,1-.12,0,.3.3,0,0,1-.2-.29V35.09a.3.3,0,0,1,0-.1.39.39,0,0,1,.06-.11h0l0,0a.42.42,0,0,1,.19-.06.37.37,0,0,1,.2.07.33.33,0,0,1,.11.25v1.09a.33.33,0,0,1-.11.25A.37.37,0,0,1,16.59,36.5ZM15.54,37a.3.3,0,0,1-.31-.31v-2a.28.28,0,0,1,0-.09.35.35,0,0,1,.08-.13l0,0a.34.34,0,0,1,.17-.05.31.31,0,0,1,.32.31v2a.32.32,0,0,1-.08.2A.29.29,0,0,1,15.54,37Zm-1,.52h0a.31.31,0,0,1-.31-.31V34.1a.28.28,0,0,1,.06-.18l0-.05,0,0a.27.27,0,0,1,.17-.06h0a.33.33,0,0,1,.2.11.3.3,0,0,1,.08.21v3.08a.34.34,0,0,1-.07.19A.35.35,0,0,1,14.5,37.49Zm-1-1a.28.28,0,0,1-.18-.06.31.31,0,0,1-.14-.26V35.09a.29.29,0,0,1,.1-.22v0a.32.32,0,0,1,.21-.08.31.31,0,0,1,.24.12.27.27,0,0,1,.07.2v1.09a.31.31,0,0,1-.07.21A.34.34,0,0,1,13.46,36.5Zm-.57-16.91.2-.32.25-.41a.22.22,0,0,1,.1-.09.25.25,0,0,1,.19,0l.24.15.07,0a2.41,2.41,0,0,1,.41-.37,2.72,2.72,0,0,1,1.36-.53H16l-1-.63h0a.67.67,0,0,1-1-.84.62.62,0,0,1,.34-.28.64.64,0,0,1,.57.05.7.7,0,0,1,.26.28,1.21,1.21,0,0,1,.05.18.71.71,0,0,1,0,.29l1.77,1.07v0h0l.08,0h0l-.07,0,0,0,0-.06.09-.15,0,0a.22.22,0,0,1,.3,0l.65.39.07,0a.24.24,0,0,1,.08.33h0l-.13.2L18,18.79h0l.06.06,0,0h0l0,0,1.76,1.07a.65.65,0,0,1,.79-.08.66.66,0,0,1,.32.67,1.17,1.17,0,0,1-.09.24.65.65,0,0,1-.69.3.58.58,0,0,1-.22-.08l-.09-.06a.66.66,0,0,1-.21-.66h0l-1-.62h0c0,.09.09.19.12.28a3.23,3.23,0,0,1,.14.51s0,.07,0,.1,0,.13,0,.19a2.64,2.64,0,0,1-.06.79,3,3,0,0,1-.12.43l.31.18,0,0a.23.23,0,0,1,0,.27l-.29.48-.16.25a.21.21,0,0,1-.29.08l-.56-.34-.18-.11h0l-.05-.06a.22.22,0,0,1,0-.22l.42-.7,0,0a.2.2,0,0,1,.11-.09.2.2,0,0,1,.18,0h0c0-.13.07-.27.1-.41a3,3,0,0,0,0-.52v0h0a.62.62,0,0,0,0-.13v0a2.4,2.4,0,0,0-.61-1.27h0l-.06.08a.19.19,0,0,1-.1.1.27.27,0,0,1-.23,0l-.52-.32L16.7,19a.24.24,0,0,1-.09-.11.22.22,0,0,1,0-.22l.06-.1a2.35,2.35,0,0,0-.7-.08h-.22a2.45,2.45,0,0,0-1.08.41,2.34,2.34,0,0,0-.35.29h0s0,0,0,0a.21.21,0,0,1,.08.15.36.36,0,0,1,0,.11h0l0,.05-.42.69a.21.21,0,0,1-.29.07l-.15-.09L13,19.88l0,0a.19.19,0,0,1-.06-.2A.19.19,0,0,1,12.89,19.59Zm11.92-2.3h0a1.56,1.56,0,0,0,.47.1l7,12.17,1.18,2.05h0l-.05.06h-17l2.25-3.86Zm5.67,2h0l.86,1.5-1.5.87-.19-.32L29,20.16l1.25-.72ZM37,33.54l-.1.05-.16.1-.87-1.51h0l1.5-.87.87,1.51-.48.28Zm-2-2.86-.87-1.51,1.51-.86.87,1.5-.59.34Zm-1.73-3-.87-1.51,1.5-.87.87,1.51-.73.42ZM29,18.16l-.87.5-.87-1.5.71-.41.8-.46.87,1.5Zm3.24,4.14.87,1.5-1.51.87-.87-1.5.8-.47ZM14.89,24.84l-1.81-1.1a.44.44,0,0,1-.15-.61L13,23l.05-.08a.29.29,0,0,1,.1-.12.43.43,0,0,1,.42-.07l.09,0,.82.5,1,.59a.44.44,0,0,1,.21.31.44.44,0,0,1-.06.31l-.12.2a.44.44,0,0,1-.49.2Zm.81-2.92h0l0,0a.08.08,0,0,1,0,0l-.09.06a.23.23,0,0,1-.28-.34.24.24,0,0,1,.32-.08.25.25,0,0,1,.1.15A.24.24,0,0,1,15.7,21.92Zm0,1.76L13.81,22.5l-.12-.07h0a.18.18,0,0,1-.07-.17l.19-1.08a.21.21,0,0,1,.1-.14l2.55-1.11h0l-.79,1.31a.18.18,0,0,1-.16.08.55.55,0,0,0-.46.24s0,0,0,0h0a.54.54,0,0,0,.86.64l0,0a.54.54,0,0,0,0-.63.17.17,0,0,1,0-.14l0-.05.32-.52.47-.77h0L17,22.89V23a.27.27,0,0,1-.09.12l-1,.61a.22.22,0,0,1-.11,0Z"/><path class="cls-1" d="M49.58,39.53,43.66,29.26a18.87,18.87,0,0,1-8.4,13,3.21,3.21,0,0,1,.21.3,3,3,0,0,0,2.65,1.54h8.82A3.06,3.06,0,0,0,49.58,39.53Z"/></g></g></svg>